<svg width="55" height="60" viewBox="0 0 55 60" fill="none" xmlns="http://www.w3.org/2000/svg">
<path d="M29.6 32.04L7.24 10.36L8.6 10.92L8.72 31H4V0.879999H4.2L26.24 22.56L25.16 22.24L25.08 1.88H29.72V32.04H29.6ZM29.6 47.04L7.24 25.36L8.6 25.92L8.72 46H4V15.88H4.2L26.24 37.56L25.16 37.24L25.08 16.88H29.72V47.04H29.6Z" fill="white"/>
<path d="M29.6 32.04L28.6951 32.9733L29.0732 33.34H29.6V32.04ZM7.24 10.36L7.73498 9.15792L6.33506 11.2933L7.24 10.36ZM8.6 10.92L9.89998 10.9122L9.89481 10.0473L9.09497 9.71792L8.6 10.92ZM8.72 31V32.3H10.0278L10.02 30.9922L8.72 31ZM4 31H2.7V32.3H4V31ZM4 0.879999V-0.420001H2.7V0.879999H4ZM4.2 0.879999L5.11164 -0.0467777L4.73222 -0.420001H4.2V0.879999ZM26.24 22.56L25.8707 23.8064L27.1516 21.6332L26.24 22.56ZM25.16 22.24L23.86 22.2451L23.8638 23.2118L24.7907 23.4864L25.16 22.24ZM25.08 1.88V0.579998H23.7749L23.78 1.88511L25.08 1.88ZM29.72 1.88H31.02V0.579998H29.72V1.88ZM29.72 32.04V33.34H31.02V32.04H29.72ZM30.5049 31.1067L8.14494 9.42668L6.33506 11.2933L28.6951 32.9733L30.5049 31.1067ZM6.74503 11.5621L8.10503 12.1221L9.09497 9.71792L7.73498 9.15792L6.74503 11.5621ZM7.30002 10.9278L7.42002 31.0078L10.02 30.9922L9.89998 10.9122L7.30002 10.9278ZM8.72 29.7H4V32.3H8.72V29.7ZM5.3 31V0.879999H2.7V31H5.3ZM4 2.18H4.2V-0.420001H4V2.18ZM3.28836 1.80678L25.3284 23.4868L27.1516 21.6332L5.11164 -0.0467777L3.28836 1.80678ZM26.6093 21.3136L25.5293 20.9936L24.7907 23.4864L25.8707 23.8064L26.6093 21.3136ZM26.46 22.2349L26.38 1.87489L23.78 1.88511L23.86 22.2451L26.46 22.2349ZM25.08 3.18H29.72V0.579998H25.08V3.18ZM28.42 1.88V32.04H31.02V1.88H28.42ZM29.72 30.74H29.6V33.34H29.72V30.74ZM29.6 47.04L28.6951 47.9733L29.0732 48.34H29.6V47.04ZM7.24 25.36L7.73498 24.1579L6.33506 26.2933L7.24 25.36ZM8.6 25.92L9.89998 25.9122L9.89481 25.0473L9.09497 24.7179L8.6 25.92ZM8.72 46V47.3H10.0278L10.02 45.9922L8.72 46ZM4 46H2.7V47.3H4V46ZM4 15.88V14.58H2.7V15.88H4ZM4.2 15.88L5.11164 14.9532L4.73222 14.58H4.2V15.88ZM26.24 37.56L25.8707 38.8064L27.1516 36.6332L26.24 37.56ZM25.16 37.24L23.86 37.2451L23.8638 38.2118L24.7907 38.4864L25.16 37.24ZM25.08 16.88V15.58H23.7749L23.78 16.8851L25.08 16.88ZM29.72 16.88H31.02V15.58H29.72V16.88ZM29.72 47.04V48.34H31.02V47.04H29.72ZM30.5049 46.1067L8.14494 24.4267L6.33506 26.2933L28.6951 47.9733L30.5049 46.1067ZM6.74503 26.5621L8.10503 27.1221L9.09497 24.7179L7.73498 24.1579L6.74503 26.5621ZM7.30002 25.9278L7.42002 46.0078L10.02 45.9922L9.89998 25.9122L7.30002 25.9278ZM8.72 44.7H4V47.3H8.72V44.7ZM5.3 46V15.88H2.7V46H5.3ZM4 17.18H4.2V14.58H4V17.18ZM3.28836 16.8068L25.3284 38.4868L27.1516 36.6332L5.11164 14.9532L3.28836 16.8068ZM26.6093 36.3136L25.5293 35.9936L24.7907 38.4864L25.8707 38.8064L26.6093 36.3136ZM26.46 37.2349L26.38 16.8749L23.78 16.8851L23.86 37.2451L26.46 37.2349ZM25.08 18.18H29.72V15.58H25.08V18.18ZM28.42 16.88V47.04H31.02V16.88H28.42ZM29.72 45.74H29.6V48.34H29.72V45.74Z" fill="white"/>
</svg>